<mxfile host="app.diagrams.net" modified="2024-03-13T20:21:21.827Z" agent="Mozilla/5.0 (Windows NT 10.0; Win64; x64; rv:123.0) Gecko/20100101 Firefox/123.0" etag="oYq7HQ1eRJvKQpa776ts" version="24.0.2" type="device">
  <diagram id="C5RBs43oDa-KdzZeNtuy" name="Page-1">
    <mxGraphModel dx="1290" dy="530" grid="1" gridSize="10" guides="1" tooltips="1" connect="1" arrows="1" fold="1" page="1" pageScale="1" pageWidth="827" pageHeight="1169" math="0" shadow="0">
      <root>
        <mxCell id="WIyWlLk6GJQsqaUBKTNV-0" />
        <mxCell id="WIyWlLk6GJQsqaUBKTNV-1" parent="WIyWlLk6GJQsqaUBKTNV-0" />
        <mxCell id="Dj8D0hPP_TVK8OI5MT37-3" style="edgeStyle=orthogonalEdgeStyle;rounded=0;orthogonalLoop=1;jettySize=auto;html=1;exitX=1;exitY=0.5;exitDx=0;exitDy=0;entryX=0;entryY=0.5;entryDx=0;entryDy=0;" edge="1" parent="WIyWlLk6GJQsqaUBKTNV-1" source="Dj8D0hPP_TVK8OI5MT37-0" target="Dj8D0hPP_TVK8OI5MT37-2">
          <mxGeometry relative="1" as="geometry" />
        </mxCell>
        <mxCell id="Dj8D0hPP_TVK8OI5MT37-4" style="edgeStyle=orthogonalEdgeStyle;rounded=0;orthogonalLoop=1;jettySize=auto;html=1;exitX=0.5;exitY=1;exitDx=0;exitDy=0;entryX=0.5;entryY=0;entryDx=0;entryDy=0;" edge="1" parent="WIyWlLk6GJQsqaUBKTNV-1" source="Dj8D0hPP_TVK8OI5MT37-0" target="Dj8D0hPP_TVK8OI5MT37-1">
          <mxGeometry relative="1" as="geometry" />
        </mxCell>
        <mxCell id="Dj8D0hPP_TVK8OI5MT37-0" value="&lt;div align=&quot;center&quot;&gt;Waiting&lt;/div&gt;&lt;div align=&quot;left&quot;&gt;entry/&lt;/div&gt;&lt;div align=&quot;left&quot;&gt;&lt;span style=&quot;white-space: pre;&quot;&gt;&#x9;&lt;/span&gt;receive_udp()&lt;br&gt;&lt;/div&gt;" style="rounded=1;whiteSpace=wrap;html=1;align=left;" vertex="1" parent="WIyWlLk6GJQsqaUBKTNV-1">
          <mxGeometry x="150" y="80" width="140" height="100" as="geometry" />
        </mxCell>
        <mxCell id="Dj8D0hPP_TVK8OI5MT37-5" style="edgeStyle=orthogonalEdgeStyle;rounded=0;orthogonalLoop=1;jettySize=auto;html=1;exitX=0.5;exitY=1;exitDx=0;exitDy=0;entryX=0;entryY=0.5;entryDx=0;entryDy=0;" edge="1" parent="WIyWlLk6GJQsqaUBKTNV-1" source="Dj8D0hPP_TVK8OI5MT37-1" target="Dj8D0hPP_TVK8OI5MT37-0">
          <mxGeometry relative="1" as="geometry">
            <Array as="points">
              <mxPoint x="220" y="350" />
              <mxPoint x="80" y="350" />
              <mxPoint x="80" y="130" />
            </Array>
          </mxGeometry>
        </mxCell>
        <mxCell id="Dj8D0hPP_TVK8OI5MT37-1" value="&lt;div align=&quot;center&quot;&gt;No emergency&lt;br&gt;&lt;/div&gt;&lt;div align=&quot;left&quot;&gt;entry/&lt;/div&gt;&lt;div align=&quot;left&quot;&gt;&lt;span style=&quot;white-space: pre;&quot;&gt;&#x9;send_emergency_over&lt;/span&gt;()&lt;br&gt;&lt;/div&gt;" style="rounded=1;whiteSpace=wrap;html=1;align=left;" vertex="1" parent="WIyWlLk6GJQsqaUBKTNV-1">
          <mxGeometry x="135" y="230" width="170" height="100" as="geometry" />
        </mxCell>
        <mxCell id="Dj8D0hPP_TVK8OI5MT37-6" style="edgeStyle=orthogonalEdgeStyle;rounded=0;orthogonalLoop=1;jettySize=auto;html=1;exitX=0.5;exitY=0;exitDx=0;exitDy=0;entryX=0.5;entryY=0;entryDx=0;entryDy=0;" edge="1" parent="WIyWlLk6GJQsqaUBKTNV-1" source="Dj8D0hPP_TVK8OI5MT37-2" target="Dj8D0hPP_TVK8OI5MT37-0">
          <mxGeometry relative="1" as="geometry" />
        </mxCell>
        <mxCell id="Dj8D0hPP_TVK8OI5MT37-2" value="&lt;div align=&quot;center&quot;&gt;Emergency&lt;/div&gt;&lt;div align=&quot;left&quot;&gt;entry/&lt;/div&gt;&lt;div align=&quot;left&quot;&gt;&lt;span style=&quot;white-space: pre;&quot;&gt;&#x9;send_alert&lt;/span&gt;()&lt;br&gt;&lt;/div&gt;" style="rounded=1;whiteSpace=wrap;html=1;align=left;" vertex="1" parent="WIyWlLk6GJQsqaUBKTNV-1">
          <mxGeometry x="370" y="80" width="140" height="100" as="geometry" />
        </mxCell>
        <mxCell id="Dj8D0hPP_TVK8OI5MT37-7" value="[emergency]" style="text;html=1;align=center;verticalAlign=middle;resizable=0;points=[];autosize=1;strokeColor=none;fillColor=none;" vertex="1" parent="WIyWlLk6GJQsqaUBKTNV-1">
          <mxGeometry x="285" y="130" width="90" height="30" as="geometry" />
        </mxCell>
        <mxCell id="Dj8D0hPP_TVK8OI5MT37-8" value="[!emergency]" style="text;html=1;align=center;verticalAlign=middle;resizable=0;points=[];autosize=1;strokeColor=none;fillColor=none;" vertex="1" parent="WIyWlLk6GJQsqaUBKTNV-1">
          <mxGeometry x="215" y="180" width="90" height="30" as="geometry" />
        </mxCell>
      </root>
    </mxGraphModel>
  </diagram>
</mxfile>
